<?xml version="1.0" encoding="utf-8"?>
<!-- Generator: Adobe Illustrator 25.2.1, SVG Export Plug-In . SVG Version: 6.00 Build 0)  -->
<svg version="1.1" id="Layer_1" xmlns="http://www.w3.org/2000/svg" xmlns:xlink="http://www.w3.org/1999/xlink" x="0px" y="0px"
	 viewBox="0 0 864 864" style="enable-background:new 0 0 864 864;" xml:space="preserve">
  <circle cx="422" cy="562" r="300" stroke="none" stroke-width="10" fill="#82181a"/>
<path d="M643.5,366.1c1.3-0.6,2.6-1.2,4-1.7c24.6-9.1,42.9-25.4,55.4-48.4c9.4-17.4,15-36.1,16.9-55.8c2.3-23.5-5.9-44.1-19.1-63
	c-1-1.4-3-2.1-4.5-3.1c-0.6,0.3-1.1,0.6-1.7,0.9c0.6,4.2,1,8.4,1.9,12.5c1.5,7.1,3.9,14.1,5,21.2c2.7,17.5-0.2,34.4-6.9,50.6
	c-6.7,16.2-16.2,30.4-32.4,38.7c-6.5,3.3-13.4,5.8-20.1,8.5c-1.6,0.6-3.6,0.5-6.1,0.9c4-5.8,8-10.5,10.7-15.9
	c10.1-19.7,13.9-40.7,12.5-62.7c-0.7-10.3-0.5-20.5,4-29.9c6-12.6,12.4-25.1,18.9-37.5c4.1-7.8,7.6-15.7,7.9-24.8
	c0.9-27.8-6.7-53.6-18-78.6c-1.7-3.7-4-7.2-6.5-10.3c-3.3-4.1-7.1-7.7-10.7-11.5c0.1,3.4,1.1,6.1,1.9,8.7c7.6,25.5,9.6,51.6,8.6,78
	c-0.6,17.4-5.7,33.9-13.8,49.4c-1.9,3.6-4.3,7-7,10c-6.3,6.9-13.1,6.6-18-1.3c-3-4.9-5.2-10.5-6.4-16.1c-2.7-12.2-4.5-24.7-6.9-37
	c-3.1-15.3-9.1-29.5-18-42.4c-2.2-3.2-4.3-7.1-10.6-6.7c0.2,3.5,0,6.9,0.7,10c1.1,4.2,2.8,8.3,4.5,12.3
	c9.2,21.2,13.2,43.4,13.3,66.5c0,7.4,2,15,4.1,22.2c2.6,9,4.8,17.9,4.4,27.4c-1.1,23.4-2.9,46.7-11.1,68.9
	c-10.1,27.4-27.1,49.2-55.3,59.7c-21.8,8.2-40.1,20.9-56.2,37.3c-1.4,1.4-3,2.5-4.9,4.1c-2.4-6.9-4.7-13.1-6.8-19.3
	c-3.6-10.7-5.2-13-11.7-15c0.2,3.1,0.2,6,0.5,8.8c0.7,6.7,1.4,13.3,2.2,19.9c1.6,14-1.6,26.3-7.2,37.9c-28.8-8.7-59-9.4-86.8,0
	c-6.3-13.3-9.2-27.2-6.8-42.8c0.8-5.2,1.4-10.4,1.8-15.6c0.3-2.9,1.6-6.2-2-9.4c-9.4,10-11.4,22.9-15.9,35.9c-3-2.5-5.7-4.1-7.7-6.4
	c-13.4-15.1-29.5-26.6-48.5-33.3c-32-11.3-51.3-34.4-61.7-65.7c-7.1-21.5-9-43.9-9.8-66.4c-0.3-8.3,0.9-16.3,3.9-23.9
	c3.7-9.4,5-19.1,4.9-29.1c-0.2-19.8,3.7-38.8,11.3-57.1c2.5-5.9,4.5-12,6.4-18.1c0.9-2.9,2.3-6.2-1.5-8.9c-6,1.3-8.5,6.4-11.4,11
	c-10.4,17-15.6,35.7-18.5,55.2c-1.4,9.2-3.3,18.4-5.8,27.3c-1.1,4.1-3.6,8.1-6.3,11.3c-4.1,4.9-9.1,5.1-13.9,1
	c-2.8-2.4-5.2-5.5-7.2-8.7c-8-13.1-13.1-27.7-15.5-42.5c-3-18.7-2.2-37.9,1.3-56.6c2.5-13.1,5.7-26.1,8.7-39.9
	c-10.9,10.8-19.4,22.4-23.5,36.7c-4,14-8,28.1-10.6,42.4c-3.1,16.7-1.5,33.1,8.1,48.1c3.8,5.9,6.7,12.3,10.3,18.3
	c9.2,15.2,12.2,31.5,11.4,49.3c-1.2,27.2,3.9,52.9,22.3,74.4c0.2,0.3,0,1-0.1,2.6c-11.3-3.5-23-6.3-31.7-14
	c-29.3-25.8-39.3-58.2-30.5-96.2c1.4-6,3.2-11.8,4.5-17.8c0.4-1.9-0.4-4-0.7-6c-0.7-0.2-1.3-0.3-2-0.5c-2.4,2.8-5,5.4-7,8.5
	c-7.4,11.1-11.6,23.5-14.6,36.3c-3.3,14.1-0.9,27.9,2.5,41.6c9.9,39.9,30.5,71.1,71.3,85.1c0.9,0.3,1.6,1.2,4.1,3.1
	c-12.3,0.9-22.2,0.7-32-2.4c-9.7-3-18.3-7.6-25.3-14.9c-7.1-7.4-10.5-16.8-14.1-26.3c-3,8.8-2.6,17.4-1.3,26
	c2.2,14.2,9.8,24.5,22.5,31.6c11.5,6.4,24.3,7.6,36.8,10.2c9.6,2,19.3,0.6,28.5-2.8c14.6-5.4,29.3-4.9,43.9-0.7
	c6.7,1.9,13,5.1,19.3,8c26.8,12.6,50.7,28.9,67.8,53.8c0.9,1.3,1.5,3,2.3,4.7c-0.2,0.2-0.5,0.3-0.7,0.5c-1.4,0-2.8,0-4.1-0.1
	c0.8,0.4,1.6,0.9,2.4,1.3c-0.3,1.1-0.6,2.1-1,3.3c-6-3.6-11.2-5.6-15-9.2c-23.7-22.6-54-25.7-84-28.3c-20.4-1.8-23.8,4.9-13.6,23.4
	c6.4,11.6,14.3,22.4,20.5,34.1c9.1,17.1,23,28.5,41.4,32.7c13.9,3.2,28.6,3.7,43,3.8c9.6,0,14.3,2.2,15.4,12.5
	c1.9,18.6,2.6,36.6-3.6,55c-8.6,25.7-12.9,52.9-23.1,77.9c-15.7,38.8-1.3,69.5,21.8,98.1c36.2,44.8,89.9,51.7,133.3,18.6
	c35.9-27.4,52.6-70.4,42-109.2c-8.4-30.8-18.8-61.2-25.4-92.3c-4.1-19.2-2.8-39.5-4.1-61.4c20.2,0,35.6,2,50.3-0.4
	c44.6-7.1,56.9-46.2,74.8-79.1c5.2-9.6-2-14.8-11.8-14c-31.3,2.6-62.8,4.7-88.2,27.1c-4.6,4.1-10.4,6.9-16.6,10.9
	c-0.8-2.5-1.4-4.9-1.8-7.2c7.4-12.8,16.7-22.6,27.4-31.2c16.1-12.8,33.9-23,52.9-30.6c14.2-5.7,29.1-8.5,44.5-4
	c6.2,1.8,12.4,3.5,18.7,4.5c17.3,2.7,33.8-1.6,49.5-8c15.6-6.4,25.6-18.1,27.2-35.6c0.6-6.7,0.3-13.4,0.2-20.1
	c0-1.3-1.1-2.7-2.2-5.4c-5.1,16.2-11,30-25.9,37.3c-15.7,7.7-34.2,10.5-43.1,6.3C643.2,366.6,643.3,366.2,643.5,366.1z" fill="white"/>
</svg>
